<svg width="305" height="51" viewBox="0 0 305 51" fill="none" xmlns="http://www.w3.org/2000/svg">
<path d="M62.201 40.054V10.8702H67.2874V40.054H62.201ZM91.6125 26.8796V40.054H86.5261V28.2137C86.5261 27.3938 86.3246 26.6503 85.9216 25.9832C85.5186 25.3023 84.9766 24.7672 84.2957 24.3781C83.6286 23.9751 82.8851 23.7736 82.0652 23.7736C81.2453 23.7736 80.4948 23.9751 79.8139 24.3781C79.1468 24.7672 78.6118 25.3023 78.2088 25.9832C77.8197 26.6503 77.6251 27.3938 77.6251 28.2137V40.054H72.5388L72.518 19.2084H77.6043L77.6251 21.0637C78.3339 20.3132 79.1816 19.7226 80.1683 19.2918C81.1549 18.8471 82.2181 18.6248 83.3576 18.6248C84.8724 18.6248 86.2552 19 87.5059 19.7504C88.7566 20.487 89.7503 21.4806 90.4868 22.7313C91.2372 23.9682 91.6125 25.3509 91.6125 26.8796ZM106.522 24.2947H102.478V40.054H97.3915V24.2947H94.3064V19.2084H97.3915V12.6629H102.478V19.2084H106.522V24.2947ZM118.557 40.5959C116.639 40.5959 114.888 40.1026 113.304 39.1159C111.734 38.1292 110.476 36.8021 109.531 35.1344C108.6 33.4668 108.134 31.6254 108.134 29.6103C108.134 28.0956 108.405 26.6781 108.947 25.3579C109.489 24.0237 110.233 22.8564 111.178 21.8558C112.137 20.8413 113.249 20.0492 114.513 19.4794C115.778 18.9096 117.126 18.6248 118.557 18.6248C120.183 18.6248 121.67 18.9722 123.018 19.667C124.38 20.348 125.534 21.286 126.479 22.4812C127.424 23.6763 128.111 25.0382 128.542 26.5669C128.973 28.0956 129.07 29.6937 128.834 31.3614H113.596C113.791 32.1396 114.11 32.8414 114.555 33.4668C115 34.0782 115.562 34.5716 116.243 34.9468C116.924 35.3081 117.696 35.4957 118.557 35.5096C119.447 35.5235 120.253 35.3151 120.975 34.8843C121.712 34.4396 122.323 33.842 122.81 33.0915L128 34.3006C127.153 36.1489 125.888 37.6637 124.206 38.8449C122.525 40.0123 120.642 40.5959 118.557 40.5959ZM113.429 27.5466H123.685C123.532 26.7128 123.206 25.9624 122.706 25.2953C122.219 24.6144 121.615 24.0724 120.892 23.6694C120.169 23.2664 119.391 23.0649 118.557 23.0649C117.723 23.0649 116.952 23.2664 116.243 23.6694C115.535 24.0585 114.93 24.5935 114.43 25.2745C113.943 25.9415 113.61 26.6989 113.429 27.5466ZM131.83 40.054L131.809 19.2084H136.895L136.916 21.0637C137.625 20.3132 138.472 19.7226 139.459 19.2918C140.446 18.8471 141.509 18.6248 142.648 18.6248C143.413 18.6248 144.177 18.7359 144.941 18.9583L142.94 24.0863C142.412 23.8778 141.884 23.7736 141.356 23.7736C140.536 23.7736 139.786 23.9751 139.105 24.3781C138.438 24.7672 137.903 25.3023 137.5 25.9832C137.111 26.6503 136.916 27.3938 136.916 28.2137V40.054H131.83ZM160.337 40.054H153.77L146.182 19.1876H151.602L157.064 34.1964L162.505 19.1876H167.924L160.337 40.054ZM170.407 32.3411V19.2084H175.494V31.007C175.494 31.8269 175.695 32.5774 176.098 33.2583C176.501 33.9254 177.036 34.4604 177.703 34.8634C178.384 35.2525 179.128 35.4471 179.934 35.4471C180.767 35.4471 181.518 35.2525 182.185 34.8634C182.852 34.4604 183.387 33.9254 183.79 33.2583C184.193 32.5774 184.395 31.8269 184.395 31.007V19.2084H189.481L189.502 40.054H184.415L184.395 38.157C183.672 38.9075 182.817 39.505 181.831 39.9497C180.844 40.3805 179.788 40.5959 178.662 40.5959C177.147 40.5959 175.765 40.2277 174.514 39.4911C173.263 38.7407 172.262 37.7471 171.512 36.5102C170.776 35.2595 170.407 33.8698 170.407 32.3411ZM202.104 40.5959C200.186 40.5959 198.435 40.1026 196.851 39.1159C195.28 38.1292 194.023 36.8021 193.078 35.1344C192.147 33.4668 191.681 31.6254 191.681 29.6103C191.681 28.0956 191.952 26.6781 192.494 25.3579C193.036 24.0237 193.78 22.8564 194.725 21.8558C195.683 20.8413 196.795 20.0492 198.06 19.4794C199.324 18.9096 200.672 18.6248 202.104 18.6248C203.73 18.6248 205.217 18.9722 206.565 19.667C207.927 20.348 209.08 21.286 210.025 22.4812C210.97 23.6763 211.658 25.0382 212.089 26.5669C212.52 28.0956 212.617 29.6937 212.381 31.3614H197.143C197.337 32.1396 197.657 32.8414 198.101 33.4668C198.546 34.0782 199.109 34.5716 199.79 34.9468C200.471 35.3081 201.242 35.4957 202.104 35.5096C202.993 35.5235 203.799 35.3151 204.522 34.8843C205.258 34.4396 205.87 33.842 206.356 33.0915L211.547 34.3006C210.699 36.1489 209.434 37.6637 207.753 38.8449C206.071 40.0123 204.188 40.5959 202.104 40.5959ZM196.976 27.5466H207.232C207.079 26.7128 206.752 25.9624 206.252 25.2953C205.766 24.6144 205.161 24.0724 204.439 23.6694C203.716 23.2664 202.938 23.0649 202.104 23.0649C201.27 23.0649 200.499 23.2664 199.79 23.6694C199.081 24.0585 198.477 24.5935 197.976 25.2745C197.49 25.9415 197.156 26.6989 196.976 27.5466Z" fill="white"/>
<path d="M229.352 40.5959C227.323 40.5959 225.433 40.1999 223.682 39.4077C221.945 38.6156 220.43 37.5247 219.138 36.135C217.845 34.7314 216.831 33.1193 216.094 31.2988C215.371 29.4644 215.01 27.5049 215.01 25.4204C215.01 23.2247 215.399 21.2096 216.177 19.3752C216.97 17.5408 218.047 15.9496 219.409 14.6016C220.77 13.2536 222.313 12.2113 224.036 11.4747C225.773 10.7382 227.58 10.3699 229.456 10.3699C231.555 10.3699 233.59 10.8633 235.564 11.85C237.551 12.8228 239.302 14.3306 240.817 16.3734L236.273 18.8124C235.341 17.6728 234.271 16.8251 233.062 16.2692C231.867 15.6994 230.644 15.4145 229.394 15.4145C228.171 15.4145 226.996 15.6647 225.871 16.165C224.759 16.6653 223.765 17.374 222.89 18.2912C222.028 19.1945 221.347 20.2646 220.847 21.5014C220.347 22.7244 220.096 24.0654 220.096 25.5246C220.096 26.9004 220.34 28.1998 220.826 29.4227C221.312 30.6318 221.979 31.6949 222.827 32.6121C223.689 33.5154 224.682 34.2242 225.808 34.7383C226.934 35.2525 228.143 35.5096 229.435 35.5096C230.297 35.5096 231.138 35.3776 231.958 35.1136C232.791 34.8356 233.57 34.4396 234.292 33.9254C235.029 33.4112 235.682 32.7858 236.252 32.0493C236.835 31.3127 237.322 30.4789 237.711 29.5478H232.395V25.1077H243.694C243.749 27.234 243.416 29.2282 242.693 31.0904C241.97 32.9526 240.949 34.5994 239.629 36.0308C238.308 37.4622 236.773 38.5809 235.022 39.3869C233.271 40.1929 231.381 40.5959 229.352 40.5959ZM245.984 32.3411V19.2084H251.07V31.007C251.07 31.8269 251.271 32.5774 251.674 33.2583C252.077 33.9254 252.613 34.4604 253.28 34.8634C253.961 35.2525 254.704 35.4471 255.51 35.4471C256.344 35.4471 257.094 35.2525 257.761 34.8634C258.428 34.4604 258.963 33.9254 259.366 33.2583C259.769 32.5774 259.971 31.8269 259.971 31.007V19.2084H265.057L265.078 40.054H259.992L259.971 38.157C259.248 38.9075 258.394 39.505 257.407 39.9497C256.42 40.3805 255.364 40.5959 254.238 40.5959C252.724 40.5959 251.341 40.2277 250.09 39.4911C248.839 38.7407 247.839 37.7471 247.088 36.5102C246.352 35.2595 245.984 33.8698 245.984 32.3411ZM268.855 40.054L268.834 19.2084H273.92L273.941 21.0637C274.65 20.3132 275.498 19.7226 276.484 19.2918C277.471 18.8471 278.534 18.6248 279.674 18.6248C280.438 18.6248 281.202 18.7359 281.967 18.9583L279.965 24.0863C279.437 23.8778 278.909 23.7736 278.381 23.7736C277.561 23.7736 276.811 23.9751 276.13 24.3781C275.463 24.7672 274.928 25.3023 274.525 25.9832C274.136 26.6503 273.941 27.3938 273.941 28.2137V40.054H268.855ZM283.217 32.3411V19.2084H288.304V31.007C288.304 31.8269 288.505 32.5774 288.908 33.2583C289.311 33.9254 289.846 34.4604 290.513 34.8634C291.194 35.2525 291.938 35.4471 292.744 35.4471C293.578 35.4471 294.328 35.2525 294.995 34.8634C295.662 34.4604 296.197 33.9254 296.6 33.2583C297.003 32.5774 297.205 31.8269 297.205 31.007V19.2084H302.291L302.312 40.054H297.226L297.205 38.157C296.482 38.9075 295.627 39.505 294.641 39.9497C293.654 40.3805 292.598 40.5959 291.472 40.5959C289.957 40.5959 288.575 40.2277 287.324 39.4911C286.073 38.7407 285.073 37.7471 284.322 36.5102C283.586 35.2595 283.217 33.8698 283.217 32.3411Z" fill="#FFBD0D"/>
<path d="M24.6421 13.2939C15.5413 13.5329 3.29324 18.2816 2.23063 28.9586C1.14768 39.8186 9.20624 45.9502 19.0138 47.4145C27.0876 48.6245 38.3951 48.2381 44.7707 43.0318C51.4311 37.5967 52.5192 27.8248 47.1298 21.3474C42.4828 15.77 34.8615 13.5024 27.8808 13.2329C27.7893 13.2278 27.7181 13.1515 27.7232 13.06L27.8045 9.86202C27.8096 9.69933 27.9011 9.5468 28.0435 9.46545C29.9908 8.35199 30.611 6.77587 29.9094 4.73707C28.7959 1.49839 23.8286 1.51364 22.7508 4.75233C22.0745 6.77078 22.705 8.34183 24.6319 9.47053C24.7946 9.56714 24.8963 9.73492 24.9014 9.92303L24.9827 12.9329C24.9878 13.1668 24.876 13.2888 24.6421 13.2939Z" stroke="#CBCBCB" stroke-width="2.54214"/>
<path d="M18.4103 43.1125C19.7983 42.3193 21.5219 42.06 23.581 42.3397C25.8028 42.6396 28.9398 42.4719 32.9818 41.8414C34.802 41.5567 36.551 41.0483 38.2339 40.3161C44.6858 37.5147 46.9229 29.5425 41.9505 24.1888C40.9336 23.0957 39.7541 22.2009 38.4169 21.5043C38.061 21.3162 37.6339 21.3314 37.2882 21.545C30.9278 25.465 21.4558 25.2209 15.2377 21.5857C14.8411 21.3518 14.4496 21.3467 14.0632 21.5755C8.70949 24.6871 6.9605 29.2985 8.81118 35.4047C9.83312 38.7858 11.6736 41.6329 14.3225 43.9565C15.436 44.9276 17.7036 43.5141 18.4103 43.1125Z" stroke="#13FF39" stroke-width="2.54214"/>
<path d="M16.8249 35.7508C18.7633 35.7357 20.3242 33.9613 20.3037 31.7952C20.2835 29.6295 18.6972 27.8856 16.7564 27.901C14.8179 27.9161 13.2571 29.6905 13.2775 31.8566C13.2977 34.0223 14.884 35.7662 16.8249 35.7508Z" stroke="#13FF39" stroke-width="2.54214"/>
<path d="M35.8463 35.7353C37.7871 35.7507 39.3734 34.0119 39.3935 31.8513C39.414 29.6903 37.8532 27.921 35.9146 27.9059C33.9739 27.8905 32.3876 29.6293 32.3674 31.7899C32.3469 33.9509 33.9078 35.7202 35.8463 35.7353Z" stroke="#13FF39" stroke-width="2.54214"/>
<path d="M24.9827 12.9329L24.9014 9.92303C24.8963 9.73492 24.7946 9.56714 24.6319 9.47053C22.705 8.34183 22.0745 6.77078 22.7508 4.75233C23.8286 1.51364 28.7959 1.49839 29.9094 4.73707C30.611 6.77587 29.9908 8.35199 28.0435 9.46545C27.9011 9.5468 27.8096 9.69933 27.8045 9.86202L27.7232 13.06C27.7181 13.1515 27.7893 13.2278 27.8808 13.2329C34.8615 13.5024 42.4828 15.77 47.1298 21.3474C52.5192 27.8248 51.4311 37.5967 44.7707 43.0318C38.3951 48.2381 27.0876 48.6245 19.0138 47.4145C9.20624 45.9502 1.14768 39.8186 2.23063 28.9586C3.29324 18.2816 15.5413 13.5329 24.6421 13.2939C24.876 13.2888 24.9878 13.1668 24.9827 12.9329ZM18.4088 43.1132C19.7968 42.32 21.5204 42.0607 23.5795 42.3404C25.8013 42.6403 28.9383 42.4726 32.9803 41.8421C34.8005 41.5574 36.5495 41.049 38.2324 40.3168C44.6843 37.5154 46.9214 29.5432 41.949 24.1895C40.9321 23.0964 39.7526 22.2016 38.4154 21.505C38.0595 21.3169 37.6324 21.3321 37.2867 21.5457C30.9263 25.4657 21.4543 25.2216 15.2362 21.5864C14.8396 21.3525 14.4481 21.3474 14.0617 21.5762C8.70798 24.6878 6.95899 29.2992 8.80967 35.4054C9.83161 38.7865 11.6721 41.6337 14.321 43.9572C15.4345 44.9283 17.7021 43.5148 18.4088 43.1132Z" fill="#242424"/>
<path d="M18.4103 43.1125C17.7036 43.5141 15.436 44.9276 14.3225 43.9565C11.6736 41.6329 9.83312 38.7858 8.81118 35.4047C6.9605 29.2985 8.70949 24.6871 14.0632 21.5755C14.4496 21.3467 14.8411 21.3518 15.2377 21.5857C21.4558 25.2209 30.9278 25.465 37.2882 21.545C37.6339 21.3314 38.061 21.3162 38.4169 21.5043C39.7541 22.2009 40.9336 23.0957 41.9505 24.1888C46.9229 29.5425 44.6858 37.5147 38.2339 40.3161C36.551 41.0483 34.802 41.5567 32.9818 41.8414C28.9398 42.4719 25.8028 42.6396 23.581 42.3397C21.5219 42.06 19.7983 42.3193 18.4103 43.1125ZM16.8278 35.7503C18.7662 35.7352 20.3271 33.9608 20.3066 31.7947C20.2864 29.629 18.7001 27.8851 16.7592 27.9005C14.8208 27.9156 13.2599 29.69 13.2804 31.856C13.3006 34.0218 14.8869 35.7657 16.8278 35.7503ZM35.8508 35.735C37.7915 35.7504 39.3778 34.0116 39.398 31.851C39.4185 29.69 37.8576 27.9207 35.9191 27.9056C33.9783 27.8902 32.392 29.629 32.3719 31.7896C32.3514 33.9506 33.9122 35.7199 35.8508 35.735Z" fill="#FFBD0D"/>
<path d="M13.2815 31.8566C13.3004 34.0243 14.8886 35.7678 16.8288 35.7508C18.7691 35.7339 20.3266 33.9629 20.3077 31.7953C20.2888 29.6276 18.7006 27.8841 16.7603 27.901C14.8201 27.918 13.2626 29.6889 13.2815 31.8566Z" fill="#242424"/>
<path d="M32.3732 31.7899C32.3544 33.952 33.9119 35.7184 35.8522 35.7353C37.7924 35.7523 39.3806 34.0133 39.3994 31.8513C39.4183 29.6892 37.8607 27.9228 35.9205 27.9059C33.9803 27.8889 32.3921 29.6279 32.3732 31.7899Z" fill="#242424"/>
</svg>
